<?xml version="1.0" encoding="utf-8"?>
<!-- Generator: Adobe Illustrator 16.0.4, SVG Export Plug-In . SVG Version: 6.00 Build 0)  -->
<!DOCTYPE svg PUBLIC "-//W3C//DTD SVG 1.1//EN" "http://www.w3.org/Graphics/SVG/1.1/DTD/svg11.dtd">
<svg version="1.1" id="Layer_1" xmlns="http://www.w3.org/2000/svg" xmlns:xlink="http://www.w3.org/1999/xlink" x="0px" y="0px"
	 width="10000px" height="10000px" viewBox="0 0 10000 10000" enable-background="new 0 0 10000 10000" xml:space="preserve">
<g>
	<g>
		<path fill="none" d="M182.946,6350.005c0-960.188,0-1920.372,0-2881.948c3176.997,0,6354.939,0,9535.74,0
			c0,959.721,0,1920.832,0,2881.948C6541.617,6350.005,3362.75,6350.005,182.946,6350.005z M8418.116,5683.037
			c38.687,71.166,71.569,127.38,100.282,185.652c29.617,60.112,73.156,99.496,141.738,99.582
			c85.057,0.107,193.246,25.569,231.674-73.162c60.617-155.734,159.572-238.922,325.365-253.211
			c63.641-5.481,101.746-61.246,100.334-118.359c-1.254-50.9-18.986-121.665-55.154-147.059
			c-67.688-47.523-79.105-105.742-77-174.264c3.746-121.962,10.023-243.919,19.494-365.547c1.467-18.823,21.975-41.416,39.74-52.844
			c95.941-61.727,107.93-203.705,15.727-265.809c-33.988-22.893-80.156-31.52-122.102-37.957
			c-79.766-12.24-145.586-38.634-185.492-116.206c-34.656-67.376-79.043-129.671-116.287-195.812
			c-39.855-70.783-103.633-95.109-178.549-93.463c-71.791,1.584-114.871,45.572-144.004,108.789
			c-21.239,46.074-45.428,91.613-74.761,132.791c-15.157,21.278-44.375,32.541-76.505,54.728c-3.07-37.41-5.269-57.356-6.25-77.362
			c-4.953-100.806-67.064-180.617-160.943-206.291c-79.035-21.621-138.773,12.08-203.527,98.734
			c-43.592,58.329-94.021,113.588-149.633,160.441c-90.744,76.449-186.963,41.293-209.271-70.017
			c-16.551-82.565-32.72-165.237-51.043-247.419c-23.056-103.381-74.651-146.359-174.058-148.438
			c-88.592-1.854-144.983,44.733-170.906,143.322c-25.305,96.252-52.114,192.262-72.555,289.574
			c-9.936,47.311-33.062,56.708-77.482,62.325c-110.553,13.97-194.965-20.205-256.537-112.769
			c-24.03-36.129-44.457-76.67-75.481-105.592c-33.767-31.479-75.741-68.022-118.013-73.74
			c-101.176-13.687-191.115,34.32-259.97,102.318c-29.745,29.375-33.224,92.092-35.591,140.305
			c-1.867,38.046,16.225,77.078,28.232,127.305c-257.664-79.822-501.31-127.323-699.564,100.102
			c-171.545-148.831-363.551-198.646-572.6-163.564c-206.261,34.613-376.326,136.142-492.959,331.871
			c-17.414-35.037-30.699-56.215-38.926-79.197c-61.933-173.068-295.992-344.598-481.127-348.023
			c-47.929-0.887-97.106,4.006-143.854,14.502c-97.646,21.92-146.303,120.955-109.006,214.392c7.882,19.748,18.468,38.413,33.864,70
			c-65.129-3.418-117.391-6.451-169.684-8.862c-276.307-12.738-552.645-24.922-828.893-38.867
			c-18.347-0.929-35.627-16.029-54.116-22.488c-46.707-16.325-93.101-41.566-140.927-44.992
			c-98.061-7.027-196.979-2.111-299.002-2.111c5.056-78.65,31.379-138.17,97.088-169.533
			c70.951-33.869,144.618-62.523,218.486-89.678c102.395-37.643,150.415-104.111,134.408-193.261
			c-15.505-86.345-78.602-132.441-186.304-132.562c-615.875-0.682-1231.755-1.015-1847.634-0.854
			c-113.701,0.029-182.062,53.215-191.791,145.333c-9.312,88.146,45.33,152.878,149.592,182.264
			c18.32,5.167,45.479,21.183,47.445,35.16c10.926,77.621,21.821,156.259,20.571,234.354
			c-2.313,144.76-21.309,289.619-17.245,433.979c2.579,91.723-37.257,155.841-91.24,215.15
			c-105.969,116.428-59.187,305.144,97.646,335.974c209.024,41.091,324.733,163.353,380.584,361.104
			c27.728,98.155,99.117,136.733,214.886,133.099c81.832-2.571,134.133-50.077,162.317-146.856
			c18.288-62.789,37.054-125.439,53.544-181.176c81.602,10.08,163.175,0.824,224.41,31.791
			c123.208,62.303,220.752,48.492,321.281-40.912c35.904-31.932,79.006-56.066,143.832-36.858
			c118.018,34.974,193.602,102.321,222.271,218.416c26.068,105.567,110.287,142.647,207.082,144.03
			c85.812,1.229,137.855-46.371,166.014-149.901c25.758-94.706,48.393-190.259,72.84-287.155c-1.132-0.393,6.521,0.524,12.022,4.453
			c197.312,140.949,407.026,160.304,630.055,68.088c19.736-8.164,47.306-1.547,70.281,3.028
			c84.226,16.778,168.447,33.976,251.834,54.424c34.283,8.405,71.798,18.733,98.502,39.94
			c62.377,49.539,139.146,70.401,196.554,22.75c41.094-34.109,74.011-90.488,87.229-142.828
			c19.37-76.691,52.035-129.555,130.042-150.32c53.054-14.127,105.714-29.727,158.921-44.771
			c123.287,162.523,264.021,268.266,414.665,302.828c44.022,10.1,68.938,24.364,81.755,71.66
			c18.568,68.506,73.777,102.272,143.078,108.396c68.459,6.044,140.48-12.149,160.738-77.657
			c25.73-83.223,87.457-107.793,150.729-143.443c42.087-23.713,75.67-26.349,120.861-9.144
			c90.035,34.287,122.717,108.418,150.405,189.618c35.472,104.021,88.543,142.215,191.942,140.277
			c89.194-1.67,153.812-58.644,184.785-151.979c43.242-130.326,60.983-263.066,51.293-399.582
			c-4.278-60.346-0.888-113.133,58.127-152.871c23.377-15.742,39.1-55.866,42.072-86.469
			c9.132-93.998,70.355-128.367,150.307-149.476c32.59,97.812,67.08,192.719,95.623,289.383
			c28.83,97.646,51.734,197.043,77.306,295.649c32.353,124.771,81.59,162.19,211.817,163.399
			c104.687,0.974,209.377,2.749,314.035,5.276c64.317,1.558,113.713-23.799,148.974-77.111
			c13.429-20.302,26.071-41.125,44.367-70.083c46.67,126.181,143.61,144.427,251.168,141.166
			c101.839-3.089,203.647-7.085,312.146-10.919c0,4.426-0.633,24.436,0.107,44.4c3.632,97.77,46.818,160.201,124.357,180.496
			c77.024,20.16,145.479-15.551,196.335-97.326C8322.516,5819.688,8364.077,5762.579,8418.116,5683.037z"/>
		<path d="M8418.116,5683.037c-54.039,79.542-95.601,136.65-132.802,196.471c-50.855,81.776-119.311,117.486-196.335,97.328
			c-77.538-20.295-120.726-82.729-124.356-180.498c-0.742-19.965-0.108-39.975-0.108-44.399
			c-108.496,3.834-210.306,7.83-312.146,10.919c-107.557,3.262-204.498-14.984-251.168-141.166
			c-18.295,28.958-30.938,49.781-44.367,70.083c-35.26,53.312-84.654,78.669-148.973,77.11
			c-104.658-2.526-209.35-4.303-314.035-5.275c-130.229-1.209-179.467-38.63-211.818-163.398
			c-25.569-98.607-48.475-198.006-77.306-295.65c-28.543-96.664-63.032-191.572-95.623-289.383
			c-79.95,21.107-141.174,55.477-150.306,149.475c-2.975,30.604-18.695,70.728-42.072,86.47
			c-59.016,39.737-62.406,92.526-58.127,152.871c9.689,136.515-8.051,269.256-51.294,399.582
			c-30.974,93.336-95.59,150.31-184.784,151.979c-103.4,1.937-156.473-36.258-191.943-140.278
			c-27.688-81.2-60.369-155.331-150.405-189.618c-45.19-17.205-78.774-14.568-120.86,9.145
			c-63.271,35.649-124.998,60.221-150.729,143.442c-20.257,65.507-92.278,83.701-160.737,77.657
			c-69.301-6.122-124.51-39.889-143.078-108.396c-12.817-47.295-37.732-61.561-81.756-71.658
			c-150.643-34.563-291.377-140.306-414.664-302.828c-53.207,15.043-105.869,30.644-158.922,44.771
			c-78.006,20.767-110.672,73.629-130.041,150.321c-13.219,52.338-46.135,108.717-87.229,142.828
			c-57.408,47.65-134.175,26.787-196.553-22.75c-26.705-21.209-64.22-31.535-98.502-39.941
			c-83.388-20.448-167.609-37.646-251.834-54.424c-22.976-4.576-50.545-11.191-70.281-3.029
			c-223.029,92.217-432.743,72.861-630.055-68.088c-5.5-3.928-13.154-4.845-12.023-4.451
			c-24.446,96.896-47.082,192.449-72.839,287.154c-28.158,103.531-80.201,151.13-166.014,149.9
			c-96.795-1.381-181.014-38.461-207.082-144.029c-28.67-116.094-104.254-183.443-222.272-218.416
			c-64.825-19.208-107.927,4.928-143.832,36.859c-100.528,89.403-198.073,103.213-321.28,40.91
			c-61.235-30.965-142.811-21.709-224.41-31.789c-16.49,55.734-35.258,118.386-53.545,181.174
			c-28.184,96.78-80.484,144.285-162.317,146.857c-115.769,3.637-187.158-34.941-214.885-133.098
			c-55.851-197.754-171.56-320.016-380.584-361.105c-156.832-30.83-203.615-219.546-97.646-335.973
			c53.982-59.312,93.818-123.431,91.239-215.151c-4.063-144.358,14.933-289.218,17.246-433.978
			c1.251-78.097-9.646-156.735-20.572-234.355c-1.966-13.979-29.124-29.992-47.444-35.16
			c-104.263-29.387-158.903-94.118-149.592-182.264c9.729-92.119,78.09-145.305,191.79-145.333
			c615.879-0.161,1231.759,0.172,1847.634,0.854c107.703,0.12,170.8,46.216,186.305,132.562
			c16.007,89.148-32.014,155.619-134.408,193.261c-73.868,27.153-147.535,55.81-218.486,89.677
			c-65.71,31.363-92.033,90.883-97.088,169.533c102.022,0,200.941-4.917,299.002,2.111c47.827,3.426,94.219,28.668,140.926,44.992
			c18.49,6.459,35.771,21.561,54.117,22.489c276.248,13.944,552.584,26.128,828.893,38.866
			c52.293,2.412,104.554,5.443,169.683,8.863c-15.396-31.588-25.981-50.254-33.864-70c-37.297-93.438,11.36-192.472,109.007-214.392
			c46.748-10.496,95.927-15.39,143.854-14.502c185.136,3.426,419.195,174.955,481.128,348.022
			c8.227,22.983,21.512,44.162,38.926,79.197c116.633-195.729,286.698-297.257,492.959-331.87
			c209.049-35.081,401.055,14.733,572.6,163.563c198.256-227.424,441.9-179.924,699.564-100.102
			c-12.008-50.227-30.101-89.258-28.232-127.305c2.367-48.211,5.846-110.93,35.591-140.305
			c68.854-67.998,158.794-116.004,259.97-102.318c42.271,5.719,84.246,42.264,118.013,73.741
			c31.024,28.921,51.451,69.462,75.481,105.591c61.572,92.564,145.984,126.738,256.537,112.77
			c44.42-5.617,67.549-15.016,77.482-62.326c20.439-97.312,47.25-193.32,72.555-289.573
			c25.922-98.589,82.314-145.177,170.906-143.323c99.405,2.078,151.002,45.056,174.058,148.438
			c18.324,82.182,34.492,164.854,51.043,247.42c22.31,111.309,118.526,146.463,209.271,70.016
			c55.611-46.854,106.041-102.111,149.633-160.441c64.754-86.655,124.492-120.354,203.527-98.734
			c93.879,25.675,155.99,105.486,160.943,206.292c0.981,20.006,3.18,39.952,6.25,77.362c32.13-22.186,61.348-33.449,76.505-54.729
			c29.333-41.177,53.521-86.715,74.759-132.79c29.137-63.216,72.215-107.205,144.004-108.789
			c74.918-1.647,138.695,22.679,178.551,93.463c37.246,66.14,81.631,128.435,116.289,195.812
			c39.902,77.571,105.725,103.965,185.492,116.205c41.943,6.438,88.111,15.063,122.098,37.957
			c92.205,62.104,80.215,204.084-15.727,265.809c-17.762,11.428-38.27,34.021-39.738,52.844
			c-9.473,121.629-15.748,243.586-19.492,365.547c-2.109,68.521,9.311,126.739,76.998,174.264
			c36.166,25.395,53.9,96.158,55.154,147.059c1.412,57.113-36.695,112.879-100.332,118.359
			c-165.793,14.289-264.75,97.477-325.367,253.212c-38.428,98.731-146.617,73.271-231.676,73.161
			c-68.58-0.086-112.119-39.469-141.738-99.581C8489.686,5810.417,8456.803,5754.203,8418.116,5683.037z M6584.555,4791.574
			c18.398,85.305,34.644,171.146,55.648,255.803c43.92,177,92.496,352.864,134.665,530.266
			c16.187,68.091,52.413,90.859,119.448,87.959c91.809-3.975,185.32-10.57,275.443,2.402c67.346,9.699,101.098-10.51,127.49-65.068
			c43.346-89.583,87.713-178.673,128.865-262.318c16.988,40.219,37.142,86.026,55.746,132.457
			c24.188,60.358,30.881,144.469,75.135,175.416c45.744,31.987,130.17,1.946,192.838,17.957
			c107.996,27.59,150.205-41.041,196.201-111.828c2.777-4.279,5.776-8.549,7.729-13.217c35.68-85.347,71.214-170.75,109.792-263.379
			c0,178.539-2.358,351.143,2.366,523.551c0.771,28.113,27.408,67.439,52.414,78.74c16.523,7.471,60.456-19.561,76.44-42.21
			c39.578-56.079,70.042-118.576,104.358-178.381c52.16-90.896,105.355-104.741,179.891-29.349
			c50.572,51.151,85.158,119.467,120.834,183.483c22.006,39.483,42.707,65.228,93.381,60.737
			c52.693-4.67,110.047,8.504,134.494-58.312c54.73-149.567,150.238-244.985,319.191-254.282
			c23.105-1.273,60.014-39.451,61.508-62.43c1.418-21.773-34.115-47.226-55.684-68.767c-14.152-14.14-44.695-22.451-46.684-36.397
			c-9.57-67.101-17.131-135.336-15.775-202.976c2.947-147.16,11.66-294.209,18.348-441.287c0.445-9.858,3.658-19.595,4.916-26.004
			c4.871-4.595,6.441-7.399,8.484-7.808c43.398-8.676,91.969-16.403,89.938-73.854c-1.98-56.023-49.363-66.15-94-70.244
			c-119.496-10.956-202.078-69.518-258.449-176.786c-37.797-71.921-89.453-136.909-138.1-202.642
			c-28.209-38.117-81.99-31.101-107.977,13.035c-21.941,37.271-38.939,77.433-58.621,116.062
			c-62.913,123.508-172.918,152.672-310.059,153.912c0-73.396,7.859-143.323-3.445-210.002
			c-5.34-31.494-42.929-66.611-74.576-80.982c-17.613-7.998-57.416,18.418-79.283,38.129c-23.994,21.623-38.791,53.42-57.7,80.713
			c-86.865,125.354-202.255,189.403-358.623,172.768c-29.647-3.156-61.019,9.859-94.13,15.876
			c-27.322-137.433-55.771-274.705-81.432-412.497c-10.199-54.761-32.367-100.934-91.461-104.014
			c-59.994-3.13-68.539,49.717-79.392,95.29c-13.601,57.12-28.28,113.985-42.774,170.889
			c-36.932,144.978-74.021,289.915-109.549,428.999c-57.975,0-105.554,0-153.129,0c35.121-29.436,75.953-41.832,106.986-66.541
			c25.861-20.586,40.229-55.615,59.686-84.248c-30.801-16.148-63.627-49.088-92.062-45.65
			c-151.84,18.351-263.348-39.646-347.251-161.955c-21.673-31.584-45.247-61.97-65.29-94.541
			c-28.322-46.026-67.182-50.234-112.342-31.992c-21.107,8.521-40.005,24.588-61.641,29.34
			c-69.854,15.345-84.992,58.742-65.361,120.111c29.143,91.089,61.213,181.238,90.221,272.364
			c19.431,61.024,35.715,123.051,53.78,185.125c-17.407-13.217-39.536-23.204-51.245-40.319
			c-24.598-35.953-35.684-84.552-66.443-112.309c-152.703-137.803-337.699-173.176-535.207-144.633
			c-105.973,15.314-169.766,90.044-187.787,195.159c-3.354,19.571-7.84,38.949-14.012,69.271
			c-30.291-32.557-54.963-57.377-77.755-83.828c-289.772-336.266-813.585-219.025-974.495,119.996
			c-157.432,331.683,6.512,674.192,358.001,782.679c76.905,23.735,165.085,8.31,159.812,130.176
			c-0.686,15.847,48.008,48.019,72.478,46.745c24.19-1.262,66.911-35.882,66.388-54.898
			c-2.209-80.006,41.655-104.832,108.186-117.58c24.297-4.654,47.291-18.914,69.473-31.312
			c104.696-58.506,225.744-45.185,302.672,48.938c47.148,57.692,71.461,133.5,113.498,196.166
			c18.273,27.244,54.398,55.94,84.117,57.877c24.271,1.584,65.209-30.613,74.359-56.465
			c45.307-128.008,94.471-255.855,76.143-397.603c-7.771-60.089-1.297-122.024-1.297-189.054
			c76.188,8.11,101.039-34.979,109.481-98.812c9.813-74.176,52.36-126.191,120.699-155.99
			c42.026-18.325,85.589-33.156,127.454-51.818C6569.168,4883.7,6614.366,4858.229,6584.555,4791.574z M4051.673,5546.421
			c42.757,38.972,68.679,82.433,100.63,87.446c59.838,9.387,67.365-48.394,77.703-93.521c2.846-12.429,6.451-24.709,8.783-37.228
			c17.888-95.938,73.453-154.401,170.129-173.143c27.539-5.336,58.349-7.055,80.918-21.193
			c24.789-15.522,61.933-48.852,57.67-64.791c-7.129-26.652-39.438-55.725-67.451-65.25c-32.916-11.194-72.558-2.625-116.127-2.625
			c23.043-29.498,39.035-49.002,53.99-69.267c120.599-163.396,153.9-340.463,21.025-503.657
			c-69.701-85.604-179.139-144.898-280.752-195.912c-50.234-25.223-124.077-10.012-185.798-2.007
			c-20.37,2.644-47.711,38.769-50.287,61.978c-1.847,16.621,28.847,44.674,50.901,54.742
			c87.723,40.049,101.254,71.697,66.631,154.808c-88.756,7.215-172.274,23.657-254.52,18.755
			c-193.115-11.518-385.339-38.188-578.469-49.208c-144.428-8.241-289.701-1.625-439.732-1.625
			c-4.658-63.935-51.711-76.628-112.578-74.435c-71.466,2.576-143.103,1.494-214.643,0.428
			c-61.352-0.918-89.003,29.479-88.715,89.021c0.19,39.244,0.038,78.488,0.038,138.458
			c-64.632-89.812-116.24-161.528-153.52-213.334c28.679-47.074,62.311-79.672,68.825-117.004
			c24.136-138.328,95.803-234.288,226.607-284.735c61.692-23.795,126.911-39.832,185.68-69.121
			c22.818-11.371,45.021-50.327,43.581-75.336c-1.071-18.563-39.323-37.442-63.834-51.137c-11.761-6.566-30.045-1.595-45.378-1.603
			c-600.553-0.267-1201.11-0.513-1801.668-0.7c-17.879-0.003-39.986-5.9-52.743,2.355c-25.207,16.311-57.528,37.791-63.231,62.582
			c-4.01,17.427,27.229,49.864,49.887,64.557c22.192,14.391,53.451,20.275,80.721,20.253c62.785-0.052,83.738,35.174,87.472,89.888
			c5.246,76.879,16.622,153.896,14.716,230.592c-4.408,177.481-15.453,354.791-23.227,532.199c-1.449,33.07-0.21,66.256-0.21,99.391
			c-42.967,30.711-65.073,79.895-102.876,107.846c-35.52,26.258-74.641,44.127-55.061,92.381
			c19.729,48.619,46.871,88.719,111.487,101.629c116.371,23.252,228.017,68.442,295.733,174.531
			c44.775,70.146,71.734,151.871,118.127,220.688c25.285,37.508,71.729,64.983,114.396,84.154
			c14.168,6.369,61.374-22.689,67.639-43.378c27.91-92.16,50.047-186.519,66.903-281.39c8.556-48.137,1.498-99.049,1.498-148.707
			c31.418,12.244,50.845,26.439,59.494,45.521c44.937,99.12,127.716,131.999,228.421,139.484
			c37.553,2.793,78.792,4.855,110.84,21.615c51.688,27.027,91.771,17.135,133.809-15.015
			c64.021-48.958,128.881-96.813,189.213-142.013c30.479,22.219,52.26,49.771,78.773,55.528
			c170.698,37.062,259.334,155.215,322.967,305.569c10.614,25.086,52.401,47.254,82.05,50.578
			c21.409,2.399,61.714-24.511,67.473-45.51c26.784-97.655,52.151-196.959,63.175-297.309
			c10.387-94.568,2.229-191.168,2.229-286.874c38.278,21.448,63.489,46.558,77.557,76.842
			c122.777,264.276,487.174,310.31,677.844,172.742c13.525-9.758,45.441-11.511,58.091-2.288
			C3795.735,5562.072,3930.824,5564.215,4051.673,5546.421z"/>
		<path fill="#FFFFFF" d="M4051.673,5546.421c-120.849,17.794-255.938,15.651-377.19-72.745c-12.648-9.223-44.565-7.471-58.09,2.288
			c-190.67,137.567-555.067,91.534-677.845-172.742c-14.066-30.284-39.278-55.394-77.557-76.842
			c0,95.706,8.159,192.306-2.229,286.874c-11.022,100.35-36.391,199.652-63.175,297.309c-5.759,21-46.062,47.91-67.473,45.51
			c-29.647-3.324-71.435-25.492-82.05-50.578c-63.631-150.354-152.269-268.508-322.967-305.569
			c-26.514-5.759-48.293-33.312-78.773-55.528c-60.333,45.197-125.191,93.055-189.213,142.013
			c-42.038,32.149-82.121,42.042-133.809,15.015c-32.047-16.76-73.287-18.821-110.84-21.615
			c-100.705-7.485-183.484-40.364-228.42-139.484c-8.649-19.081-28.076-33.275-59.494-45.521c0,49.658,7.058,100.57-1.498,148.707
			c-16.857,94.871-38.994,189.229-66.904,281.39c-6.264,20.688-53.469,49.747-67.639,43.378
			c-42.666-19.171-89.111-46.646-114.396-84.154c-46.393-68.816-73.352-150.541-118.127-220.688
			c-67.717-106.089-179.361-151.279-295.732-174.531c-64.617-12.911-91.76-53.01-111.488-101.63
			c-19.579-48.253,19.541-66.122,55.061-92.381c37.803-27.951,59.91-77.134,102.876-107.845c0-33.135-1.239-66.32,0.21-99.391
			c7.773-177.408,18.819-354.718,23.227-532.2c1.906-76.696-9.469-153.713-14.715-230.592
			c-3.733-54.713-24.688-89.938-87.473-89.888c-27.27,0.022-58.527-5.863-80.721-20.252c-22.657-14.692-53.896-47.131-49.887-64.557
			c5.703-24.792,38.024-46.272,63.231-62.583c12.757-8.256,34.864-2.357,52.743-2.354c600.557,0.187,1201.115,0.435,1801.668,0.699
			c15.333,0.008,33.617-4.965,45.378,1.604c24.511,13.693,62.763,32.572,63.834,51.137c1.44,25.008-20.763,63.965-43.581,75.336
			c-58.768,29.289-123.986,45.326-185.679,69.121c-130.806,50.447-202.472,146.408-226.608,284.735
			c-6.515,37.332-40.146,69.931-68.824,117.004c37.278,51.808,88.887,123.522,153.519,213.334c0-59.97,0.153-99.214-0.038-138.458
			c-0.288-59.543,27.364-89.939,88.715-89.021c71.54,1.066,143.178,2.148,214.643-0.428c60.867-2.193,107.92,10.5,112.578,74.435
			c150.031,0,295.306-6.616,439.732,1.625c193.13,11.021,385.354,37.69,578.469,49.208c82.245,4.9,165.764-11.54,254.52-18.755
			c34.624-83.11,21.092-114.757-66.631-154.808c-22.055-10.068-52.748-38.121-50.901-54.742
			c2.576-23.209,29.917-59.334,50.287-61.978c61.722-8.005,135.563-23.215,185.798,2.007
			c101.613,51.014,211.051,110.309,280.752,195.912c132.875,163.193,99.573,340.261-21.025,503.657
			c-14.955,20.265-30.946,39.769-53.99,69.267c43.569,0,83.211-8.569,116.127,2.625c28.013,9.525,60.322,38.598,67.451,65.25
			c4.262,15.939-32.883,49.269-57.67,64.791c-22.57,14.14-53.379,15.857-80.918,21.193
			c-96.676,18.74-152.242,77.205-170.129,173.143c-2.332,12.519-5.938,24.799-8.783,37.228
			c-10.338,45.127-17.864,102.905-77.703,93.521C4120.354,5628.854,4094.43,5585.393,4051.673,5546.421z M1424.585,4585.503
			l1.868,2.063c-21.526-10.521-43.053-21.039-63.145-30.861c-4.797-215.379,68.034-290.502,279.605-291.479
			c84.289-0.39,168.642,1.595,252.841-1.248c29.715-1.002,59.056-13.162,81.687-18.582
			c112.215,18.928,199.425,69.136,224.213,196.935c24.263-246.042,223.649-301.593,412.2-384.583c-596.386,0-1176.229,0-1779.269,0
			c45.427,16.27,69.195,24.016,92.381,33.238c56.162,22.335,103.359,140.41,80.421,195.216c-6.99,16.704-9.125,36.462-9.252,54.851
			c-0.82,120.006,1.955,240.088-1.222,360.017c-2.936,111.021-27.565,224.01-12.974,332.124
			c11.105,82.294,16.58,134.078-98.791,148.062c45.675,15.248,69.282,23.129,92.886,31.012c0.584,6.343,1.168,12.689,1.752,19.032
			c-34.293,12.728-68.588,25.45-108.776,40.364c45.917,14.502,85.487,27,125.062,39.498c-0.734,3.707-1.469,7.418-2.203,11.125
			c-23.162,1.383-46.324,2.76-69.487,4.139c219.97,65.357,336.345,233.131,433.63,433.098c0-314.811-0.244-617.849,0.559-920.883
			c0.051-20.137,8.086-40.252,12.411-60.377c8.451,1.905,16.902,3.808,25.357,5.709c0,321.888,0,643.771,0,965.654
			c7.522,0.309,15.041,0.613,22.563,0.922c79.141-317.631,12.524-644.752,45.313-982.841
			c52.96,15.851,110.364,17.883,143.634,47.257c33.148,29.262,42.083,85.956,64.65,137.516
			c39.679-162.176,149.988-270.896,277.254-383.549c-160.857,0-305.812-0.775-450.742,0.744
			C1474.152,4569.938,1449.395,4579.98,1424.585,4585.503z M1664.583,5427.744c-2.048,3.467-4.092,6.932-6.142,10.396
			c23.709,17.256,45.094,42.869,71.556,50.229c84.985,23.619,171.574,41.922,258.278,58.419c12.959,2.464,30.834-14.457,44.76-24.69
			c53.155-39.061,107.609-76.69,158.004-119.104c231.97-195.242,243.402-357.796,109.908-558.449
			c-57.194-85.971-125.668-164.438-196.676-256.208c-95.598,84.544-193.588,155.885-272.106,244.479
			c-100.817,113.75-169.836,243.582-60.955,395.258c8.134,11.33,11.005,26.437,19.291,47.234
			c-149.69-20.084-222.295-114.547-268.826-258.979c-45.966,233.778,51.136,358.392,243.765,429.541
			C1731.82,5439.83,1698.2,5433.787,1664.583,5427.744z M2709.898,5011.529c9.705,0.508,19.41,1.018,29.115,1.526
			c0,114.651,0,229.306,0,343.953c0,112.778,0,225.552,0,338.332c7.842,0.551,15.678,1.104,23.52,1.658
			c8.541-56.715,23.356-113.308,24.479-170.17c3.827-194.031,1.992-388.173,4.901-582.231c0.313-20.894,15.494-57.479,27.259-58.955
			c23.998-3.002,52.604,9.22,74.951,22.5c14.004,8.328,20.069,30.012,40.198,62.815c18.895-153.616,125.002-202.839,235.18-251.06
			c-83.967-7.013-164.756-3.196-245.022-8.03c-89.28-5.381-163.812,17.415-227.562,115.272c0-76.324,0-126.117,0-180.508
			c-63.744,0-120.763,0-192.374,0c0,220.473,0,437.084,0,653.693c-8.762-0.146-17.527-0.292-26.293-0.436
			c0-216.514,0-433.026,0-660.055c-20.148,6.081-39.141,8.268-52.799,17.965c-4.431,3.143,3.953,26.355,8.577,39.66
			c4.628,13.323,17.46,25.949,16.978,38.503c-1.737,45.022-10.676,89.842-11.312,134.815
			c-1.921,135.554,2.996,271.354-3.913,406.592c-2.295,44.892-32.347,88.362-50.462,134.406
			c5.657,2.506,27.236,12.055,52.971,23.439c-14.887,6.924-23.342,10.855-39.625,18.427
			c139.05,49.8,239.759,135.489,311.233,262.769c0-116.705,0.004-233.408,0.004-350.108
			C2709.902,5248.049,2709.898,5129.787,2709.898,5011.529z M4273.25,5165.879c7.466-115.66,14.311-221.704,21.152-327.748
			c6.916-0.645,13.828-1.288,20.744-1.932c7.388,77.455,14.774,154.908,22.162,232.362c5.438,3.024,10.875,6.047,16.312,9.071
			c30.685-66.947,83.192-132.912,86.255-201.104c3.449-76.647-37.623-155.331-59.777-233c-1.24-4.347-6.535-10.754-9.979-10.78
			c-69.705-0.502-84.56-71.688-130.966-100.494c-49.945-31.004-105.422-53.096-158.482-79.073
			c48.443,86.461,62.434,163.681,40.095,256.938c-12.731,53.14-30.022,77.179-94.373,57.25
			c-254.964-78.957-452.272,162.502-474.631,357.379c86.124-49.496,178.313-81.004,238.553-143.375
			c55.94-57.92,102.687-100.963,185.529-95.035c26.112,1.865,52.989-6.992,75.719-10.375
			c14.408,55.51,28.453,109.627,38.405,147.977c-85.103,45.378-157.693,84.083-230.285,122.789
			c3.188,6.38,6.373,12.764,9.561,19.148C4000.821,5165.879,4132.409,5165.879,4273.25,5165.879z M3649.245,4752.02
			c-104.481,0-226.361-2.621-348.062,0.856c-91.709,2.621-162.175,49.036-222.949,117.491
			c-76.662,86.348-95.889,221.842-209.969,249.083c46.468,52.72,91.504,104.853,137.703,155.931
			c44.752,49.48,90.703,97.877,131.651,141.938c52.478-35.834,91.201-62.279,131.786-89.992
			c-2.92-13.551-11.278-32.741-10.424-51.516c5.17-113.638,10.857-227.315,20.89-340.58c1.348-15.231,27.543-39.15,43.247-39.985
			c34.22-1.824,74.988-0.551,101.978,16.765c25.091,16.097,35.777,54.645,50.463,79.36
			C3533.028,4912.176,3591.923,4831.01,3649.245,4752.02z M3646.352,5341.529c121.621,153.299,271.483,167.928,431.442,123.496
			c49.886-13.857,71.022-6.684,85.907,63.924c24.93-154.646,101.195-237.471,229.664-274.885
			c-79.268-5.204-155.118-3.945-230.902-5.665c-47.367-1.074-84.529,0.349-112.552,53.433
			c-14.334,27.146-66.598,44.733-103.194,47.561c-86.687,6.699-128.828-57.498-161.854-129.262
			c-150.729,93.807-260.086,253.845-460.548,243.188C3446.694,5467.37,3569.262,5474.807,3646.352,5341.529z M1435.365,4495.13
			c160.831,0,321.197-2.76,481.363,1.76c45.354,1.28,90.107,23.817,135.138,36.608c-1.318,5.297-2.636,10.601-3.954,15.897
			c22.163-11.058,44.326-22.114,68.02-33.931c-2.007-21.646-3.024-41.953-5.896-61.992
			c-15.408-107.65-20.321-115.775-127.158-118.336c-132.622-3.184-265.516-2.715-398.085,1.977
			C1475.859,4340.971,1445.523,4375.7,1435.365,4495.13z M3349.659,4968.428c0,96.459,0,192.92,0,288.976
			C3448.645,5241.245,3461.451,5084.143,3349.659,4968.428z M3519.17,5204.387c124.47-45.445,246.592-90.033,368.602-134.606
			C3765.043,5032.895,3547.515,5113.701,3519.17,5204.387z M1602.898,4943.143c-25.487-43.91-41.158-70.91-56.828-97.908
			c-6.627,2.162-13.252,4.317-19.875,6.479c-1.209,25.855-2.418,51.71-3.768,80.549
			C1545.756,4935.417,1564.676,4937.975,1602.898,4943.143z"/>
		<path fill="#FFFFFF" d="M6585.629,4792.503c-17.691-61.576-33.977-123.603-53.406-184.627
			c-29.008-91.126-61.078-181.274-90.221-272.364c-19.631-61.37-4.492-104.768,65.361-120.111
			c21.636-4.752,40.533-20.818,61.641-29.34c45.16-18.244,84.02-14.035,112.342,31.992c20.043,32.571,43.617,62.957,65.29,94.541
			c83.903,122.31,195.411,180.306,347.251,161.955c28.436-3.438,61.262,29.502,92.062,45.65
			c-19.455,28.633-33.822,63.662-59.686,84.248c-31.033,24.709-71.865,37.105-106.986,66.541c47.576,0,95.154,0,153.129,0
			c35.526-139.084,72.617-284.021,109.549-428.999c14.494-56.903,29.176-113.769,42.774-170.889
			c10.853-45.573,19.396-98.42,79.392-95.29c59.094,3.082,81.262,49.253,91.461,104.014
			c25.66,137.792,54.108,275.064,81.432,412.497c33.111-6.017,64.482-19.032,94.13-15.876
			c156.368,16.637,271.758-47.415,358.623-172.768c18.909-27.293,33.706-59.09,57.7-80.713
			c21.867-19.711,61.67-46.127,79.283-38.129c31.647,14.371,69.236,49.488,74.576,80.982c11.305,66.68,3.445,136.605,3.445,210.002
			c137.141-1.24,247.146-30.404,310.059-153.912c19.682-38.63,36.68-78.792,58.621-116.062
			c25.986-44.135,79.768-51.152,107.977-13.035c48.646,65.732,100.303,130.72,138.1,202.642
			c56.371,107.269,138.953,165.83,258.449,176.786c44.637,4.093,92.02,14.221,94,70.244c2.031,57.45-46.539,65.178-89.938,73.854
			c-2.043,0.408-3.613,3.213-8.484,7.808c-1.258,6.41-4.471,16.146-4.916,26.004c-6.689,147.078-15.4,294.127-18.348,441.287
			c-1.355,67.64,6.205,135.875,15.775,202.976c1.988,13.946,32.531,22.26,46.684,36.397c21.568,21.541,57.102,46.992,55.684,68.767
			c-1.494,22.979-38.402,61.155-61.508,62.43c-168.953,9.297-264.461,104.714-319.191,254.282
			c-24.447,66.813-81.801,53.642-134.494,58.312c-50.674,4.489-71.375-21.254-93.381-60.737
			c-35.676-64.017-70.262-132.332-120.834-183.483c-74.535-75.394-127.73-61.547-179.891,29.349
			c-34.316,59.806-64.78,122.302-104.358,178.381c-15.983,22.649-59.917,49.681-76.44,42.21
			c-25.006-11.3-51.643-50.627-52.414-78.74c-4.725-172.408-2.365-345.012-2.365-523.551
			c-38.578,92.629-74.112,178.033-109.793,263.379c-1.951,4.669-4.949,8.938-7.729,13.217
			c-45.996,70.787-88.205,139.418-196.201,111.829c-62.668-16.011-147.093,14.03-192.838-17.958
			c-44.254-30.947-50.945-115.057-75.134-175.415c-18.604-46.431-38.758-92.239-55.746-132.457
			c-41.153,83.646-85.521,172.735-128.866,262.317c-26.393,54.561-60.145,74.769-127.49,65.069
			c-90.123-12.974-183.635-6.377-275.443-2.403c-67.035,2.901-103.262-19.867-119.447-87.959
			c-42.169-177.399-90.745-353.265-134.665-530.265c-21.006-84.655-37.25-170.499-55.649-255.804L6585.629,4792.503z
			 M7093.854,5265.793c-4.804-0.432-9.606-0.857-14.412-1.288c-6.602-20.546-13.086-41.128-19.845-61.624
			c-5.599-16.992-9.731-34.814-17.95-50.467c-5.16-9.822-18.756-24.26-24.893-22.646c-12.828,3.371-25.104,14.408-34.193,25.179
			c-15.061,17.853-30.116,36.649-40.346,57.427c-18.97,38.533-43.478,77.641-48.674,118.659
			c-4.513,35.657,14.498,74.272,23.028,111.601c35.94,157.273,35.99,154.252,198.935,157.453
			c55.791,1.099,74.069-19.297,86.434-69.177c49.723-200.528,103.259-400.114,155.945-599.901
			c3.85-14.596,12.143-28.02,18.369-41.985c6.699,2.078,13.401,4.16,20.104,6.242c-54.173,218.296-108.343,436.597-162.517,654.892
			c127.623-140.56,120.213-330.541,192.691-516.754c45.432,156.474,85.622,289.449,122.484,423.345
			c39.982,145.222,38.619,143.663,189.885,142.604c43.494-0.305,61.351-11.873,72.353-55.551
			c53.981-214.381,112.577-427.596,168.722-641.436c53.359-203.251,105.694-406.771,158.481-610.173
			c-107.743,145.124-223.41,270.478-428.862,261.712c57.967,38.9,122.859,67.35,106.842,146.932
			c-38.392,190.701-79.879,380.778-120.115,571.108c-7.957,0.231-15.914,0.461-23.871,0.692
			c-83.026-374.248-166.055-748.5-249.082-1122.75c-7.33-0.358-14.662-0.719-21.994-1.078
			c-16.455,38.791-37.33,76.361-48.492,116.625c-27.26,98.297-48.498,198.248-74.918,296.795
			c-51.398,191.715-52.22,192.974-250.029,187.994c-29.16-0.734-83.184-25.512-82.26-34.879
			c4.094-41.487,18.202-85.09,40.484-120.498c12.985-20.631,48.254-27.24,75.229-41.045
			c-87.877-13.582-169.051-26.129-229.803-35.52c-56.48-64.826-104.873-120.366-158.979-182.471
			c-20.541,80.365,169.59,794.654,202.528,816.506c19.492-20.332,35.142-40.725,54.672-56.223
			c47.209-37.475,87.916-74.139,61.595-144.708c-13.606-36.474-16.254-77.04-24.737-120.287c84.473,0,159.344,0,233.797,0
			c2.449,24.911,4.201,42.708,5.953,60.501c8.1,5.488,16.201,10.979,24.301,16.468c22.174-37.458,44.349-74.913,66.52-112.372
			c7.406,7.077,14.809,14.15,22.215,21.223c-50.324,65.815-111.721,126.123-147.947,198.946
			C7133.143,5092.969,7118.729,5181.982,7093.854,5265.793z M8364.302,5491.012c-13.524-0.92-27.053-1.842-40.581-2.763
			c0-168.354,0-336.712,0-508.692c-69.211,0-125.896,0-186.355,0c0,274.004,0,542.295,0,832.344
			c57.015-100.148,104.986-180.718,149.021-263.386c20.628-38.728,45.978-46.179,87.202-37.675
			c110.035,22.693,190.037,82.825,242.971,180.855c14.73,27.273,29.889,54.314,48.43,87.97c0-499.976,0-988.955,0-1477.938
			c-72.943,132.203-166.297,225.785-333.42,241.58c69.855,24.524,150.153,14.729,150.786,101.172
			c1.85,252.504,0.562,505.071-4.523,757.517c-0.547,26.981-34.183,53.297-52.466,79.923c-9.623-4.229-19.25-8.454-28.873-12.686
			c0-162.633,0-325.27,0-487.901c-10.728-0.199-21.459-0.397-32.19-0.595C8364.302,5150.826,8364.302,5320.921,8364.302,5491.012z
			 M9088.957,5507.791c-18.238-19.418-30.785-35.818-46.264-48.703c-53.668-44.674-16.053-102.307-17.924-151.867
			c-3.494-92.654,13.85-185.889,15.58-279.011c1.396-75.408-12.322-151.16-10.025-226.474
			c1.713-55.986,18.33-111.516,28.863-170.332c-147.578-0.399-212.945-139.642-311.613-258.58c0,478.778,0,938.474,0,1416.393
			C8840.938,5650.223,8916.281,5514.434,9088.957,5507.791z M8182.301,4324.309c-6.707-0.272-13.412-0.547-20.115-0.819
			c-51.41,207.438-100.506,415.481-154.878,622.136c-54.03,205.367-113.368,409.336-170.38,613.917
			c6.127,2.687,12.252,5.366,18.378,8.051c35.673-72.692,84.091-141.96,104.737-218.696
			c76.141-282.979,144.737-568.045,212.058-853.297C8185.041,4440.754,8179.38,4381.52,8182.301,4324.309z M8200.25,4608.883
			c-9.619,78.852-26.427,158.854-25.465,238.643c0.359,29.812,41.765,83.211,65.167,83.604
			c47.426,0.801,104.325-16.987,139.264-47.673c17.595-15.449,9.743-86.877-11.252-113.709
			C8322.141,4711.175,8260.546,4664.939,8200.25,4608.883z M6769.656,5252.354c8.578-0.74,17.155-1.485,25.733-2.228
			c-9.528-87.054-12.037-175.597-30.16-260.817c-30.835-145.015-74.558-287.263-106.625-432.057
			c-14.336-64.717-40.696-73.966-85.427-48.396C6705.594,4740.711,6688.621,5010.548,6769.656,5252.354z M7671.93,4969.656
			c5.711-0.297,11.42-0.592,17.131-0.889c13.469-63.999,28.82-127.667,40.021-192.059c22.722-130.66,15.992-139.186-128.948-174.854
			C7624.59,4727.139,7648.258,4848.398,7671.93,4969.656z M6924.088,5591.113c-34.43-99.515-26.225-211.664-130.143-289.281
			c0,25.861-2.504,40.964,0.449,54.908c10.807,51.005,20.32,102.641,36.36,152.076
			C6843.494,5548.068,6832.374,5616.216,6924.088,5591.113z M6585.564,4276.32c-29.435,5.924-52.388,10.545-94.34,18.988
			c47.651,67.462,85.994,121.751,124.34,176.041c5.196-1.561,10.395-3.119,15.592-4.676
			C6616.92,4407.227,6602.68,4347.782,6585.564,4276.32z"/>
		<path fill="#FFFFFF" d="M6584.555,4791.574c29.812,66.652-15.387,92.126-64.033,113.812
			c-41.865,18.662-85.428,33.494-127.453,51.818c-68.338,29.797-110.887,81.814-120.699,155.99
			c-8.443,63.834-33.295,106.924-109.481,98.812c0,67.028-6.474,128.965,1.296,189.054
			c18.329,141.746-30.835,269.594-76.143,397.603c-9.15,25.852-50.088,58.049-74.358,56.465
			c-29.72-1.937-65.845-30.633-84.117-57.877c-42.037-62.666-66.351-138.474-113.498-196.166
			c-76.929-94.123-197.976-107.444-302.672-48.938c-22.183,12.397-45.176,26.655-69.474,31.312
			c-66.528,12.748-110.395,37.574-108.186,117.58c0.523,19.018-42.195,53.638-66.387,54.898
			c-24.471,1.273-73.162-30.898-72.478-46.745c5.272-121.867-82.907-106.44-159.812-130.176
			c-351.49-108.485-515.434-450.996-358.002-782.679c160.91-339.021,684.723-456.262,974.496-119.996
			c22.791,26.451,47.463,51.271,77.754,83.828c6.172-30.32,10.656-49.699,14.013-69.271
			c18.021-105.115,81.813-179.845,187.787-195.159c197.507-28.543,382.504,6.83,535.207,144.633
			c30.76,27.757,41.847,76.355,66.442,112.309c11.709,17.115,33.838,27.103,51.06,40.068
			C6585.629,4792.503,6584.555,4791.574,6584.555,4791.574z M5737.311,4993.938c8.431-6.309,16.857-12.617,25.287-18.928
			c15.688,19.074,43.502,37.287,44.929,57.375c5.59,78.766,4.405,158.158,2.733,237.254
			c-1.367,64.521-34.521,104.688-100.145,115.67c-16.316,2.734-32.164,8.287-61.23,15.988
			c39.443,12.326,65.106,20.344,97.611,30.502c-17.434,9.66-27.848,15.431-22.159,12.276
			c58.019,46.884,118.142,95.74,178.608,144.166c18.383,14.72,37.717,28.243,56.61,42.313c11.245-23.574,35.896-50.076,31.494-70.24
			c-23.722-108.668,9.29-215.641,2.996-323.444c-4.015-68.716-1.431-137.871-0.229-206.801c0.244-13.933,7.582-27.741,11.652-41.606
			c6.104,0.86,12.203,1.719,18.307,2.58c0,249.498,0,498.996,0,748.492c97.783-242.543,29.523-497.385,84.236-758.912
			c34.302,34.265,68.6,68.528,101.659,101.555c21.171-131.391,133.929-178.736,243.226-234.083
			c-131.711-7.429-260.783-7.043-389.848-7.687c-34.104-0.172-75.752,10.03-76.557-47.194c-0.724-51.2,10.779-96.935,71.428-95.237
			c47.756,1.336,95.104,17.209,149.744,28.03c54.906-63.22,54.906-63.22,226.031-22.763
			c-106.025-116.513-247.172-134.11-386.23-143.719c-170.606-11.788-232.645,52.406-237.369,221.628
			c-0.547,19.472-4.32,38.849-7.08,62.394c-57.219-7.399-111.854,20.549-152.065-46.832
			c-110.315-184.84-311.369-314.03-567.353-143.951c244.836-45.029,470.871,33.316,528.76,190.554
			c-27.926-3.134-57.918,2.321-75.569-9.96c-92.961-64.669-190.344-81.447-305.156-76.059
			c-186.957,8.776-373.051,195.002-350.688,380.002c30.389,0,61.065,0,91.744,0c0.321,6.856,0.647,13.713,0.97,20.567
			c-33.187,2.481-66.373,4.961-99.431,7.431c-0.207,119.254,41.733,207.754,129.682,271.604
			c52.684-39.428,106.238-79.512,159.79-119.591c3.756,4.793,7.515,9.589,11.271,14.382
			c-48.485,43.229-96.967,86.461-149.763,133.535c149.134,99.754,300.252,115.652,446.806,30.592
			c195.414-113.421,255.875-288.902,185.151-509.35c8.496-2.262,16.995-4.522,25.491-6.789
			c17.322,31.355,34.641,62.711,49.021,88.752C5733.145,5049.055,5735.227,5021.496,5737.311,4993.938z M4938.172,5452.617
			c-105.98-106.586-192.441-221.25-182.844-383.271c9.616-162.352,118.111-264.354,223.27-370.463
			c-38.77,10.188-72.836,31.004-109.295,36.834c-94.508,15.104-126.852,82.783-151.455,161.399
			C4667.384,5058.363,4686.45,5302.521,4938.172,5452.617z"/>
		<path d="M1424.585,4585.503c24.81-5.522,49.567-15.565,74.431-15.828c144.928-1.521,289.883-0.745,450.741-0.745
			c-127.267,112.652-237.575,221.374-277.254,383.55c-22.567-51.56-31.501-108.253-64.649-137.517
			c-33.27-29.373-90.674-31.406-143.635-47.256c-32.789,338.088,33.827,665.209-45.313,982.84
			c-7.522-0.308-15.041-0.613-22.563-0.922c0-321.883,0-643.767,0-965.653c-8.455-1.901-16.906-3.804-25.357-5.71
			c-4.324,20.126-12.359,40.241-12.411,60.378c-0.802,303.034-0.558,606.072-0.558,920.883
			c-97.287-199.967-213.662-367.74-433.631-433.099c23.163-1.379,46.325-2.756,69.488-4.139c0.734-3.706,1.468-7.417,2.202-11.124
			c-39.574-12.499-79.144-24.997-125.062-39.499c40.188-14.914,74.483-27.637,108.777-40.363
			c-0.584-6.344-1.168-12.689-1.752-19.033c-23.604-7.881-47.213-15.764-92.887-31.011
			c115.371-13.985,109.897-65.771,98.791-148.063c-14.592-108.113,10.039-221.104,12.975-332.123
			c3.175-119.929,0.4-240.01,1.221-360.017c0.127-18.39,2.262-38.147,9.252-54.851c22.938-54.807-24.259-172.881-80.42-195.217
			c-23.186-9.222-46.955-16.969-92.382-33.238c603.04,0,1182.884,0,1779.27,0c-188.552,82.99-387.938,138.541-412.201,384.584
			c-24.788-127.799-111.998-178.008-224.212-196.936c-22.631,5.422-51.973,17.58-81.688,18.583
			c-84.199,2.842-168.552,0.856-252.841,1.247c-211.571,0.979-284.401,76.102-279.605,291.479
			c20.092,9.822,41.618,20.34,63.114,30.847c-72.916,32.418-168.738,16.876-222.841,88.603
			c6.152,11.437,12.304,22.871,18.456,34.307C1289.552,4668.809,1357.07,4627.156,1424.585,4585.503z M1067.411,4221.406
			c-37.017,208.99,18.448,423.59-49.062,632.646c-15.873,49.147,0.498,110.455,8.77,165.149
			c7.729,51.088,24.404,100.828,37.145,151.158C1096.188,4854.143,1099.178,4538.352,1067.411,4221.406z"/>
		<path d="M1664.583,5427.744c33.617,6.043,67.237,12.086,100.858,18.13c-192.629-71.149-289.731-195.763-243.766-429.541
			c46.531,144.431,119.135,238.894,268.826,258.978c-8.286-20.799-11.158-35.903-19.291-47.233
			c-108.882-151.677-39.862-281.508,60.955-395.258c78.52-88.597,176.509-159.937,272.105-244.479
			c71.009,91.771,139.481,170.236,196.677,256.207c133.493,200.653,122.062,363.207-109.908,558.449
			c-50.396,42.412-104.851,80.043-158.004,119.104c-13.925,10.233-31.802,27.154-44.761,24.69
			c-86.704-16.497-173.293-34.8-258.277-58.419c-26.461-7.357-47.845-32.973-71.555-50.229
			C1660.491,5434.675,1662.535,5431.211,1664.583,5427.744z M2108.765,5274.177c-10.503-3.95-21.009-7.897-31.512-11.847
			c9.747-25.75,22.421-50.819,28.629-77.396c12.765-54.634,30.793-110.092,30.677-165.18
			c-0.156-75.242-15.206-150.451-23.428-221.818c-73.749,25.922-68.196,121.279-102.09,211.751
			c-16.977-38.065-24.635-55.237-32.605-73.116c-75.074,69.113,6.537,143.146-8.526,229.544
			c-23.777-29.435-36.979-45.778-50.179-62.118c-6.871,2.98-13.741,5.961-20.608,8.941
			c40.461,106.08,80.919,212.162,121.759,319.229c105.467-49.014,154.055-122.434,132.206-213.738
			C2138.312,5237.01,2123.54,5255.594,2108.765,5274.177z"/>
		<path d="M2709.898,5011.529c0,118.258,0.004,236.52,0.004,354.776c0,116.7-0.004,233.403-0.004,350.108
			c-71.477-127.278-172.185-212.969-311.234-262.769c16.284-7.571,24.739-11.503,39.626-18.427
			c-25.735-11.387-47.313-20.934-52.971-23.439c18.114-46.043,48.167-89.516,50.462-134.406
			c6.908-135.238,1.992-271.039,3.913-406.592c0.636-44.975,9.573-89.793,11.312-134.815c0.483-12.556-12.349-25.181-16.977-38.503
			c-4.624-13.305-13.008-36.52-8.578-39.66c13.659-9.698,32.65-11.884,52.799-17.965c0,227.027,0,443.541,0,660.055
			c8.767,0.144,17.531,0.289,26.293,0.436c0-216.609,0-433.223,0-653.693c71.611,0,128.631,0,192.374,0
			c0,54.392,0,104.184,0,180.508c63.751-97.857,138.283-120.653,227.563-115.272c80.268,4.834,161.056,1.019,245.021,8.03
			c-110.177,48.221-216.285,97.443-235.179,251.06c-20.13-32.804-26.195-54.487-40.199-62.815
			c-22.347-13.28-50.954-25.502-74.95-22.5c-11.766,1.476-26.944,38.062-27.26,58.955c-2.908,194.06-1.074,388.201-4.9,582.231
			c-1.123,56.862-15.939,113.455-24.48,170.17c-7.841-0.554-15.678-1.106-23.519-1.658c0-112.78,0-225.554,0-338.332
			c0-114.647,0-229.301,0-343.953C2729.311,5012.547,2719.604,5012.038,2709.898,5011.529z"/>
		<path d="M4273.25,5165.879c-140.84,0-272.428,0-404.012,0c-3.188-6.385-6.373-12.77-9.561-19.148
			c72.592-38.705,145.185-77.41,230.285-122.789c-9.952-38.35-23.997-92.467-38.405-147.977
			c-22.729,3.385-49.604,12.24-75.719,10.375c-82.844-5.927-129.588,37.113-185.529,95.036
			c-60.239,62.37-152.429,93.878-238.553,143.375c22.356-194.878,219.667-436.337,474.631-357.379
			c64.352,19.927,81.642-4.11,94.373-57.251c22.339-93.257,8.351-170.477-40.095-256.938
			c53.062,25.979,108.537,48.069,158.482,79.072c46.408,28.807,61.263,99.993,130.967,100.495c3.444,0.026,8.738,6.433,9.979,10.78
			c22.154,77.668,63.227,156.353,59.777,233c-3.062,68.191-55.569,134.156-86.254,201.104c-5.438-3.024-10.875-6.047-16.312-9.071
			c-7.388-77.457-14.774-154.908-22.163-232.363c-6.916,0.645-13.828,1.288-20.744,1.932
			C4287.561,4944.175,4280.716,5050.219,4273.25,5165.879z"/>
		<path d="M3649.245,4752.02c-57.322,78.99-116.217,160.156-173.687,239.351c-14.686-24.717-25.371-63.265-50.463-79.36
			c-26.988-17.314-67.758-18.588-101.978-16.765c-15.704,0.835-41.899,24.754-43.247,39.985
			c-10.031,113.264-15.719,226.942-20.89,340.58c-0.854,18.773,7.503,37.965,10.424,51.516
			c-40.585,27.712-79.31,54.158-131.786,89.992c-40.947-44.061-86.898-92.456-131.65-141.938
			c-46.198-51.078-91.235-103.211-137.703-155.931c114.08-27.24,133.307-162.733,209.968-249.083
			c60.774-68.455,131.239-114.87,222.95-117.491C3422.884,4749.396,3544.763,4752.02,3649.245,4752.02z M3254.171,4937.473
			c-64.924,65.205-77.28,224.051-16.655,311.912C3243.541,5136.57,3248.678,5040.346,3254.171,4937.473z"/>
		<path d="M3646.352,5341.529c-77.09,133.276-199.656,125.84-322.037,121.789c200.461,10.656,309.818-149.381,460.548-243.188
			c33.024,71.765,75.168,135.961,161.854,129.263c36.597-2.826,88.861-20.414,103.195-47.562
			c28.022-53.084,65.185-54.506,112.551-53.433c75.786,1.72,151.635,0.461,230.903,5.666
			c-128.47,37.414-204.734,120.238-229.664,274.885c-14.885-70.607-36.021-77.782-85.907-63.924
			C3917.835,5509.457,3767.971,5494.828,3646.352,5341.529z"/>
		<path d="M1435.365,4495.13c10.158-119.431,40.494-154.159,149.426-158.017c132.568-4.691,265.463-5.16,398.085-1.977
			c106.837,2.561,111.75,10.688,127.158,118.336c2.872,20.04,3.891,40.346,5.896,61.992c-23.694,11.816-45.856,22.875-68.02,33.932
			c1.317-5.299,2.636-10.601,3.954-15.898c-45.03-12.791-89.782-35.328-135.139-36.607
			C1756.562,4492.37,1596.196,4495.13,1435.365,4495.13z"/>
		<path d="M3349.659,4968.428c111.792,115.715,98.985,272.817,0,288.976C3349.659,5161.348,3349.659,5064.887,3349.659,4968.428z"/>
		<path d="M3519.17,5204.387c28.345-90.686,245.873-171.492,368.662-134.617C3765.762,5114.354,3643.64,5158.939,3519.17,5204.387z"
			/>
		<path d="M1602.898,4943.143c-38.223-5.168-57.144-7.726-80.471-10.881c1.348-28.84,2.559-54.694,3.768-80.549
			c6.623-2.16,13.248-4.317,19.875-6.479C1561.741,4872.23,1577.411,4899.232,1602.898,4943.143z"/>
		<path d="M7093.854,5265.793c24.875-83.811,39.289-172.824,77.646-249.928c36.227-72.824,97.623-133.131,147.947-198.946
			c-7.406-7.073-14.81-14.146-22.215-21.224c-22.172,37.459-44.346,74.914-66.521,112.373c-8.099-5.489-16.201-10.979-24.301-16.469
			c-1.752-17.793-3.504-35.59-5.953-60.5c-74.453,0-149.324,0-233.797,0c8.483,43.246,11.131,83.812,24.737,120.287
			c26.322,70.569-14.386,107.233-61.595,144.707c-19.53,15.498-35.179,35.891-54.671,56.223
			c-32.939-21.852-223.07-736.141-202.529-816.505c54.106,62.104,102.498,117.644,158.979,182.47
			c60.752,9.392,141.926,21.938,229.804,35.52c-26.976,13.807-62.242,20.415-75.229,41.046
			c-22.282,35.407-36.392,79.01-40.483,120.497c-0.924,9.368,53.1,34.145,82.26,34.879c197.811,4.979,198.631,3.723,250.028-187.993
			c26.421-98.548,47.658-198.5,74.918-296.796c11.162-40.264,32.037-77.834,48.492-116.625c7.332,0.359,14.664,0.719,21.995,1.079
			c83.027,374.248,166.055,748.5,249.082,1122.749c7.956-0.23,15.913-0.46,23.87-0.691
			c40.235-190.33,81.726-380.408,120.115-571.108c16.019-79.583-48.875-108.032-106.842-146.933
			c205.453,8.766,321.12-116.588,428.862-261.711c-52.787,203.4-105.121,406.92-158.481,610.172
			c-56.144,213.84-114.737,427.056-168.722,641.436c-11.002,43.678-28.857,55.247-72.353,55.551
			c-151.265,1.061-149.901,2.617-189.884-142.604c-36.863-133.896-77.055-266.871-122.484-423.346
			c-72.479,186.214-65.069,376.195-192.692,516.755c54.174-218.296,108.345-436.597,162.517-654.892
			c-6.701-2.082-13.404-4.164-20.104-6.242c-6.229,13.965-14.521,27.39-18.37,41.984
			c-52.687,199.788-106.224,399.373-155.944,599.902c-12.363,49.879-30.644,70.273-86.435,69.177
			c-162.942-3.201-162.992-0.181-198.935-157.454c-8.529-37.327-27.541-75.941-23.027-111.6
			c5.195-41.021,29.704-80.127,48.673-118.66c10.229-20.776,25.285-39.574,40.347-57.426c9.09-10.771,21.365-21.809,34.192-25.179
			c6.138-1.612,19.731,12.824,24.894,22.646c8.219,15.651,12.352,33.476,17.949,50.467c6.76,20.496,13.244,41.078,19.846,61.625
			C7084.246,5264.936,7089.05,5265.361,7093.854,5265.793z"/>
		<path d="M8364.302,5491.012c0-170.09,0-340.186,0-510.275c10.731,0.198,21.463,0.396,32.19,0.596c0,162.631,0,325.268,0,487.9
			c9.623,4.23,19.25,8.458,28.873,12.686c18.283-26.625,51.919-52.94,52.466-79.922c5.085-252.445,6.373-505.014,4.523-757.518
			c-0.633-86.441-80.931-76.646-150.786-101.172c167.123-15.794,260.477-109.376,333.42-241.579c0,488.983,0,977.962,0,1477.938
			c-18.541-33.654-33.699-60.695-48.43-87.971c-52.934-98.029-132.936-158.161-242.971-180.855
			c-41.225-8.504-66.574-1.053-87.202,37.676c-44.034,82.668-92.007,163.235-149.021,263.386c0-290.049,0-558.339,0-832.344
			c60.46,0,117.146,0,186.355,0c0,171.981,0,340.339,0,508.692C8337.249,5489.17,8350.777,5490.091,8364.302,5491.012z"/>
		<path d="M9088.957,5507.791c-172.676,6.643-248.02,142.432-341.383,281.426c0-477.919,0-937.613,0-1416.393
			c98.668,118.938,164.035,258.181,311.613,258.58c-10.533,58.816-27.15,114.346-28.863,170.332
			c-2.297,75.313,11.422,151.065,10.025,226.474c-1.73,93.122-19.074,186.356-15.58,279.011
			c1.871,49.561-35.744,107.193,17.924,151.867C9058.172,5471.973,9070.719,5488.373,9088.957,5507.791z M8982.33,4711.32
			c-8.668-0.476-17.336-0.951-26.004-1.426c0,237.89,0,475.779,0,713.67c8.668,0,17.336,0,26.004,0
			C8982.33,5186.15,8982.33,4948.736,8982.33,4711.32z"/>
		<path d="M8182.301,4324.309c-2.921,57.211,2.74,116.445-10.2,171.289c-67.319,285.252-135.917,570.318-212.058,853.297
			c-20.646,76.737-69.064,146.004-104.737,218.697c-6.126-2.686-12.251-5.365-18.378-8.051
			c57.012-204.58,116.35-408.55,170.38-613.917c54.372-206.655,103.468-414.699,154.878-622.136
			C8168.889,4323.762,8175.594,4324.035,8182.301,4324.309z"/>
		<path d="M8200.25,4608.883c60.296,56.057,121.891,102.292,167.714,160.865c20.995,26.832,28.847,98.26,11.252,113.709
			c-34.938,30.686-91.838,48.475-139.264,47.673c-23.402-0.394-64.808-53.792-65.167-83.604
			C8173.823,4767.736,8190.631,4687.734,8200.25,4608.883z"/>
		<path d="M6769.656,5252.354c-81.035-241.807-64.062-511.644-196.479-743.498c44.729-25.569,71.091-16.32,85.427,48.396
			c32.067,144.794,75.79,287.042,106.625,432.057c18.123,85.223,20.631,173.766,30.16,260.817
			C6786.812,5250.868,6778.234,5251.613,6769.656,5252.354z"/>
		<path d="M7671.93,4969.656c-23.672-121.258-47.34-242.519-71.797-367.801c144.939,35.668,151.668,44.194,128.947,174.854
			c-11.199,64.393-26.552,128.061-40.02,192.059C7683.35,4969.064,7677.641,4969.359,7671.93,4969.656z"/>
		<path d="M6924.088,5591.113c-91.714,25.103-80.594-43.045-93.332-82.297c-16.04-49.438-25.555-101.071-36.361-152.076
			c-2.953-13.944-0.449-29.047-0.449-54.908C6897.863,5379.449,6889.658,5491.6,6924.088,5591.113z"/>
		<path d="M6585.564,4276.32c17.115,71.461,31.354,130.906,45.592,190.353c-5.197,1.558-10.396,3.115-15.592,4.676
			c-38.347-54.289-76.688-108.579-124.34-176.041C6533.178,4286.865,6556.131,4282.244,6585.564,4276.32z"/>
		<path d="M5737.311,4993.938c-2.084,27.56-4.166,55.117-5.635,74.498c-14.381-26.041-31.699-57.396-49.021-88.752
			c-8.496,2.266-16.995,4.527-25.491,6.789c70.725,220.445,10.264,395.929-185.15,509.35
			c-146.555,85.061-297.672,69.162-446.807-30.592c52.796-47.074,101.275-90.307,149.764-133.535
			c-3.756-4.793-7.516-9.589-11.271-14.382c-53.552,40.079-107.107,80.163-159.79,119.591
			c-87.948-63.85-129.888-152.35-129.683-271.604c33.06-2.47,66.246-4.947,99.432-7.431c-0.322-6.854-0.648-13.711-0.971-20.567
			c-30.678,0-61.354,0-91.744,0c-22.36-185,163.732-371.227,350.689-380.002c114.812-5.389,212.195,11.39,305.156,76.059
			c17.65,12.281,47.645,6.826,75.568,9.96c-57.888-157.237-283.922-235.583-528.758-190.554
			c255.981-170.08,457.035-40.889,567.352,143.951c40.211,67.381,94.848,39.433,152.066,46.832
			c2.758-23.545,6.533-42.922,7.08-62.394c4.725-169.222,66.762-233.416,237.369-221.628
			c139.059,9.607,280.205,27.206,386.229,143.719c-171.125-40.458-171.125-40.458-226.031,22.762
			c-54.642-10.82-101.987-26.693-149.744-28.029c-60.647-1.695-72.149,44.037-71.429,95.236
			c0.806,57.226,42.453,47.022,76.558,47.194c129.063,0.644,258.138,0.258,389.849,7.687
			c-109.297,55.346-222.056,102.693-243.227,234.084c-33.061-33.025-67.357-67.291-101.659-101.556
			c-54.713,261.528,13.547,516.369-84.235,758.913c0-249.497,0-498.995,0-748.493c-6.104-0.86-12.203-1.72-18.308-2.58
			c-4.069,13.866-11.409,27.675-11.651,41.606c-1.203,68.931-3.785,138.086,0.229,206.801
			c6.294,107.806-26.717,214.776-2.996,323.445c4.4,20.163-20.249,46.666-31.494,70.24c-18.895-14.07-38.229-27.596-56.609-42.314
			c-60.469-48.426-120.592-97.281-178.609-144.166c-5.688,3.153,4.727-2.617,22.159-12.276
			c-32.505-10.158-58.168-18.175-97.61-30.502c29.065-7.701,44.912-13.254,61.229-15.987
			c65.624-10.982,98.776-51.147,100.144-115.67c1.674-79.097,2.856-158.488-2.732-237.254c-1.427-20.088-29.24-38.301-44.93-57.375
			C5754.168,4981.318,5745.74,4987.628,5737.311,4993.938z M5274.559,5188.568c-17.76,23.627-36.633,41.508-46.139,63.449
			c-9.073,20.928-18.381,61.526-10.29,66.766c39.524,25.589,35.987,56.832,30.135,95.133c-3.729,24.424,4.179,50.631,8.136,88.029
			c60.865-77.842,8.168-205.682,136.4-229.008c-13.109-54.908-13.109-54.908,245.363-130.631
			c-223.801-7.537-346.281-114.65-359.125-342.248c-49.373,110.889-91.455,205.408-131.592,295.553
			c22.41,5.434,50.646,12.273,78.883,19.119c0.19,6.982,0.381,13.963,0.571,20.941c-41.28,19.662-82.562,39.319-125.61,59.819
			C5161.553,5262.854,5206.537,5163.438,5274.559,5188.568z"/>
		<path d="M4938.172,5452.617c-251.723-150.096-270.788-394.254-220.325-555.501c24.604-78.616,56.948-146.296,151.456-161.399
			c36.458-5.83,70.525-26.646,109.294-36.834c-105.157,106.107-213.653,208.111-223.269,370.463
			C4745.73,5231.367,4832.191,5346.031,4938.172,5452.617z"/>
		<path fill="#FFFFFF" d="M1067.411,4221.406c31.767,316.943,28.774,632.735-3.149,948.953
			c-12.738-50.33-29.416-100.07-37.144-151.158c-8.271-54.694-24.642-116-8.771-165.149
			C1085.859,4644.998,1030.395,4430.396,1067.411,4221.406z"/>
		<path fill="#FFFFFF" d="M1424.585,4585.503c-67.515,41.651-135.033,83.304-202.547,124.957
			c-6.152-11.435-12.304-22.87-18.456-34.306c54.102-71.728,149.924-56.185,222.841-88.604
			C1426.453,4587.566,1424.585,4585.503,1424.585,4585.503z"/>
		<path fill="#FFFFFF" d="M2108.765,5274.177c14.775-18.583,29.548-37.167,44.296-55.716
			c21.875,91.271-26.712,164.691-132.18,213.705c-40.839-107.066-81.297-213.146-121.759-319.229
			c6.866-2.98,13.737-5.961,20.608-8.941c13.199,16.34,26.401,32.684,50.178,62.118c15.063-86.397-66.547-160.431,8.526-229.544
			c7.972,17.879,15.63,35.051,32.606,73.116c33.894-90.472,28.341-185.829,102.09-211.751
			c8.223,71.368,23.271,146.577,23.428,221.818c0.116,55.088-17.913,110.545-30.677,165.18
			c-6.208,26.577-18.883,51.646-28.629,77.396C2087.755,5266.279,2098.262,5270.227,2108.765,5274.177z"/>
		<path fill="#FFFFFF" d="M3254.171,4937.473c-5.493,102.873-10.63,199.1-16.655,311.912
			C3176.891,5161.523,3189.247,5002.678,3254.171,4937.473z"/>
		<path fill="#FFFFFF" d="M8982.33,4711.32c0,237.416,0,474.83,0,712.244c-8.668,0-17.336,0-26.004,0c0-237.891,0-475.78,0-713.67
			C8964.994,4710.37,8973.662,4710.846,8982.33,4711.32z"/>
		<path fill="#FFFFFF" d="M5274.559,5188.568c-68.021-25.131-113.006,74.285-173.268,6.924c43.049-20.5,84.33-40.158,125.611-59.819
			c-0.19-6.979-0.381-13.959-0.572-20.942c-28.236-6.845-56.473-13.686-78.883-19.119c40.137-90.145,82.219-184.664,131.592-295.553
			c12.844,227.598,135.325,334.712,359.125,342.249c-258.473,75.722-258.473,75.722-245.363,130.63
			c-128.232,23.327-75.535,151.167-136.399,229.008c-3.957-37.398-11.865-63.605-8.136-88.029
			c5.853-38.301,9.391-69.543-30.135-95.133c-8.092-5.237,1.217-45.838,10.289-66.766
			C5237.926,5230.076,5256.798,5212.195,5274.559,5188.568z"/>
	</g>
</g>
</svg>
